<?xml version="1.0" standalone="no"?>
<!DOCTYPE svg PUBLIC "-//W3C//DTD SVG 20010904//EN"
 "http://www.w3.org/TR/2001/REC-SVG-20010904/DTD/svg10.dtd">
<svg version="1.0" xmlns="http://www.w3.org/2000/svg"
 width="345.000000pt" height="326.000000pt" viewBox="0 0 345.000000 326.000000"
 preserveAspectRatio="xMidYMid meet">

<g transform="translate(0.000000,326.000000) scale(0.100000,-0.100000)"
fill="#000000" stroke="none">
<path d="M1764 3170 c-258 -38 -445 -243 -470 -516 -14 -158 36 -294 151 -409
76 -76 147 -117 235 -136 30 -7 57 -14 59 -16 3 -2 -34 -42 -81 -91 -195 -200
-301 -401 -344 -652 -23 -137 -3 -302 44 -360 l17 -21 65 40 c73 44 73 44 40
136 -44 121 -6 319 93 477 156 250 409 441 867 656 74 35 140 69 147 75 13 14
113 280 113 302 0 20 -6 19 -44 -4 -61 -38 -412 -232 -461 -255 -190 -90 -344
-94 -500 -12 -126 65 -245 230 -245 337 0 42 5 53 35 83 158 158 498 227 770
156 145 -38 134 -39 96 9 -18 23 -61 61 -95 84 -145 102 -316 143 -492 117z"/>
<path d="M1435 3153 c-185 -46 -414 -163 -581 -297 -284 -228 -474 -534 -545
-880 -27 -131 -29 -356 -4 -501 52 -303 199 -574 432 -795 296 -282 685 -425
1108 -407 458 20 827 241 1172 702 95 127 214 316 206 328 -3 5 -34 7 -68 5
-93 -8 -149 -43 -263 -166 -209 -225 -297 -308 -369 -351 -119 -70 -294 -121
-418 -121 -62 0 -226 27 -239 40 -16 16 85 66 284 140 110 42 133 54 181 97
60 54 81 103 87 202 4 70 3 83 -9 76 -8 -5 -38 -24 -68 -43 -123 -78 -239
-114 -462 -142 -205 -25 -244 -35 -309 -74 -30 -18 -93 -51 -140 -72 -82 -38
-88 -39 -196 -39 l-111 0 -98 49 c-80 40 -113 64 -180 130 -242 241 -354 636
-280 986 68 320 269 590 588 791 62 38 91 64 112 98 39 63 124 162 180 211 45
39 43 46 -10 33z"/>
<path d="M1729 2834 c-56 -17 -135 -69 -162 -106 l-20 -27 33 -66 c63 -123
186 -210 316 -222 129 -12 197 30 214 133 13 73 5 127 -25 180 -58 99 -222
150 -356 108z"/>
<path d="M1300 2238 l0 -36 -212 -4 c-178 -3 -220 -7 -256 -22 -55 -24 -117
-94 -131 -151 -14 -55 -14 -324 0 -385 14 -61 50 -111 102 -141 41 -23 48 -24
245 -24 l204 0 32 95 c55 161 169 355 260 439 28 26 34 51 13 51 -37 0 -173
109 -237 190 l-19 25 -1 -37z"/>
<path d="M2440 2166 c-78 -33 -202 -96 -295 -151 -252 -149 -439 -330 -531
-511 -43 -85 -47 -98 -52 -187 -5 -101 9 -187 35 -208 8 -8 36 -12 66 -10 69
3 288 29 357 42 99 19 90 1 90 175 l0 154 243 0 243 0 55 28 c39 20 61 39 81
72 25 42 27 55 31 185 6 216 -3 304 -37 355 -53 80 -173 103 -286 56z"/>
<path d="M2911 1451 c-73 -39 -118 -99 -206 -276 -78 -157 -134 -243 -142
-218 -4 12 89 229 146 340 22 43 39 79 37 80 -7 7 -123 -30 -139 -45 -27 -24
-39 -50 -87 -187 -23 -65 -55 -142 -71 -170 -33 -59 -108 -139 -151 -161 -17
-9 -27 -18 -24 -21 10 -11 102 19 166 54 146 79 213 143 382 360 21 26 75 77
122 113 78 60 135 128 119 144 -14 13 -119 5 -152 -13z"/>
</g>
</svg>
